# 3ds Max Wavefront OBJ Exporter v0.97b - (c)2007 guruware
# File Created: 28.10.2013 11:44:37

mtllib suishi.mtl

#
# object Box14_frag
#

v  -473.4107 -245083.7656 254.9626
v  -473.9249 -245086.2969 254.6501
v  -472.7781 -245086.2969 255.7552
v  -472.8772 -245083.7656 255.4769
v  -471.7015 -245086.2969 256.8497
v  -471.2243 -245083.7656 257.1571
v  -472.2304 -245086.2969 256.3120
v  -468.3529 -245085.0156 259.1063
v  -468.5600 -245083.7656 258.9294
v  -469.0048 -245083.7656 258.6581
v  -469.4621 -245083.7656 257.1633
v  -469.1520 -245083.7656 257.6729
v  -469.2806 -245085.2344 257.0732
v  -469.6819 -245083.7656 256.6212
v  -470.0828 -245083.7656 254.0707
v  -470.0496 -245083.7656 254.4334
v  -469.9561 -245084.5000 254.0154
v  -470.1010 -245083.7656 253.7906
v  -470.3802 -245086.2969 253.0347
v  -470.7913 -245086.2969 253.2898
v  -470.4134 -245084.8906 253.2530
v  -470.2259 -245085.2500 253.1184
v  -470.1994 -245086.2969 252.9565
v  -470.9930 -245083.7656 253.7959
v  -470.4213 -245083.7656 253.4876
v  -470.2394 -245084.3438 253.2859
v  -470.2429 -245083.7656 253.4075
v  -468.9868 -245086.2969 257.3983
v  -469.1791 -245086.2969 257.0167
v  -469.0981 -245086.2969 256.4403
v  -472.5111 -245086.2969 254.4074
v  -472.5652 -245083.7656 254.8175
v  -473.6578 -245086.2969 254.6042
v  -471.6912 -245086.2969 256.8597
v  -470.3863 -245086.2969 258.1285
v  -470.4964 -245083.7656 257.8649
v  -468.1264 -245086.2969 259.3301
v  -468.6885 -245083.7656 258.5798
v  -468.4514 -245086.2969 258.4460
v  -469.3923 -245086.2969 254.5685
v  -469.2139 -245086.2969 255.3932
v  -469.1140 -245086.2969 256.2966
v  -469.1251 -245086.2969 256.1963
v  -469.7924 -245083.7656 255.6225
v  -470.0847 -245086.2969 253.2663
v  -469.6562 -245086.2969 253.8838
v  -469.6519 -245086.2969 253.8949
v  -469.5637 -245086.2969 254.1239
# 48 vertices

vn -0.6875 0.1360 0.7133
vn -0.6875 0.1361 0.7134
vn -0.6990 0.1317 0.7029
vn -0.6957 0.1329 0.7059
vn -0.7069 0.1288 0.6955
vn -0.7070 0.1287 0.6954
vn -0.4709 0.1704 0.8656
vn -0.5187 0.0904 0.8502
vn -0.4717 0.1691 0.8654
vn 0.8398 0.3412 -0.4222
vn 0.8033 0.3401 -0.4889
vn 0.8567 0.4439 -0.2628
vn 0.8591 0.4847 -0.1643
vn 0.9038 0.4218 -0.0718
vn 0.8419 0.5159 -0.1584
vn 0.8608 0.4495 -0.2388
vn 0.9056 0.4200 -0.0587
vn -0.4306 0.3184 -0.8445
vn -0.5029 0.3001 -0.8105
vn -0.4406 0.3161 -0.8402
vn -0.3751 0.3307 -0.8660
vn -0.3749 0.3306 -0.8661
vn -0.4593 0.3761 -0.8047
vn -0.4776 0.3677 -0.7979
vn -0.4023 0.4365 -0.8048
vn -0.3667 0.4442 -0.8175
vn -0.3668 0.4441 -0.8175
vn -0.3137 0.4057 -0.8585
vn 0.8578 0.2780 -0.4323
vn 0.9649 0.2251 0.1355
vn -0.5177 0.3115 -0.7968
vn -0.5178 0.3115 -0.7968
vn -0.4304 0.3342 -0.8385
vn -0.3202 0.3571 -0.8774
vn -0.1564 0.3808 -0.9113
vn -0.1564 0.3809 -0.9113
vn -0.1566 0.3809 -0.9112
vn -0.6925 0.1163 0.7120
vn -0.6924 0.1163 0.7121
vn -0.6007 0.1471 0.7859
vn -0.6924 0.1162 0.7121
vn -0.5276 0.1683 0.8326
vn -0.4613 0.1856 0.8676
vn 0.9038 0.2698 -0.3322
vn 0.9038 0.2697 -0.3322
vn 0.8827 0.2717 -0.3834
vn 0.8567 0.2729 -0.4378
vn 0.8757 0.2721 -0.3989
vn 0.9038 0.2698 -0.3323
vn 0.8567 0.2729 -0.4377
vn 0.8304 0.5131 -0.2173
vn 0.8330 0.5356 -0.1390
vn 0.8425 0.5306 -0.0932
vn 0.8429 0.5300 -0.0929
vn 0.8426 0.5304 -0.0931
vn 0.8344 0.5350 -0.1327
vn 0.9184 0.2018 -0.3403
vn 0.9186 0.2014 -0.3401
vn 0.9185 0.2016 -0.3401
vn 0.9186 0.2015 -0.3401
vn 0.8604 0.2955 -0.4152
vn 0.9185 0.2015 -0.3401
vn 0.7975 0.4340 -0.4190
vn 0.8408 0.4345 -0.3228
vn 0.8404 0.4344 -0.3239
vn 0.0000 -1.0000 -0.0000
vn 0.0000 1.0000 -0.0000
# 67 vertex normals

vt 0.0891 0.6851 0.9995
vt 0.0005 0.7341 0.0005
vt 0.1981 0.5608 0.0005
vt 0.1810 0.6044 0.9995
vt 0.3836 0.3893 0.0005
vt 0.4658 0.3411 0.9995
vt 0.2924 0.4736 0.0005
vt 0.9605 0.5039 0.0356
vt 0.9248 0.9995 0.0633
vt 0.8482 0.9995 0.1058
vt 0.7694 0.3401 0.9995
vt 0.8228 0.2603 0.9995
vt 0.8007 0.3542 0.4181
vt 0.7315 0.4251 0.9995
vt 0.6624 0.8249 0.9995
vt 0.6682 0.7680 0.9995
vt 0.6843 0.8335 0.7070
vt 0.6593 0.8688 0.9995
vt 0.6112 0.9872 0.0005
vt 0.5404 0.9473 0.0005
vt 0.6055 0.9530 0.5568
vt 0.6378 0.9741 0.4110
vt 0.6424 0.9995 0.0005
vt 0.5056 0.8679 0.9995
vt 0.6041 0.9163 0.9995
vt 0.6355 0.9479 0.7692
vt 0.6349 0.9288 0.9995
vt 0.8513 0.3033 0.0005
vt 0.8181 0.3631 0.0005
vt 0.8321 0.4535 0.0005
vt 0.2441 0.7721 0.0005
vt 0.2347 0.7078 0.9995
vt 0.0465 0.7412 0.0005
vt 0.3853 0.3877 0.0005
vt 0.6102 0.1888 0.0005
vt 0.5912 0.2302 0.9995
vt 0.8482 0.1058 0.9995
vt 0.9995 0.0005 0.0005
vt 0.9605 0.0356 0.5039
vt 0.9027 0.1181 0.9995
vt 0.9248 0.0633 0.9995
vt 0.9435 0.1391 0.0005
vt 0.7814 0.7468 0.0005
vt 0.8121 0.6176 0.0005
vt 0.8294 0.4760 0.0005
vt 0.8274 0.4917 0.0005
vt 0.7125 0.5816 0.9995
vt 0.6621 0.9509 0.0005
vt 0.7359 0.8541 0.0005
vt 0.7367 0.8524 0.0005
vt 0.7519 0.8165 0.0005
vt 0.0565 0.1391 0.0005
vt 0.0005 0.0005 0.0005
vt 0.3898 0.1888 0.0005
vt 0.1487 0.3033 0.0005
vt 0.1819 0.3631 0.0005
vt 0.1679 0.4535 0.0005
vt 0.1706 0.4760 0.0005
vt 0.6147 0.3877 0.0005
vt 0.1726 0.4917 0.0005
vt 0.1879 0.6176 0.0005
vt 0.6164 0.3893 0.0005
vt 0.7076 0.4736 0.0005
vt 0.2186 0.7468 0.0005
vt 0.8019 0.5608 0.0005
vt 0.9995 0.7341 0.0005
vt 0.9535 0.7412 0.0005
vt 0.7559 0.7721 0.0005
vt 0.3888 0.9872 0.0005
vt 0.3576 0.9995 0.0005
vt 0.3379 0.9509 0.0005
vt 0.4596 0.9473 0.0005
vt 0.2641 0.8541 0.0005
vt 0.2633 0.8524 0.0005
vt 0.2481 0.8165 0.0005
# 75 texture coords

g Box14_frag
usemtl 07___Default
s 1
f 1/1/1 2/2/2 3/3/3 4/4/4 
f 5/5/5 6/6/5 4/4/4 7/7/6 
f 3/3/3 7/7/6 4/4/4 
f 8/8/7 9/9/8 10/10/9 
s 16
f 11/11/10 12/12/11 13/13/12 14/14/13 
f 15/15/14 16/16/15 17/17/16 18/18/17 
s 8
f 19/19/18 20/20/19 21/21/20 22/22/21 
f 19/19/18 22/22/21 23/23/22 
f 21/21/23 24/24/24 25/25/25 26/26/26 
f 25/25/25 27/27/27 26/26/26 
f 26/26/28 22/22/28 21/21/28 
s 16
f 13/13/29 28/28/29 29/29/29 
f 29/29/30 30/30/30 13/13/30 
s 8
f 24/24/24 21/21/23 20/20/31 
f 24/24/32 20/20/32 31/31/33 32/32/34 
f 31/31/33 1/1/35 32/32/34 
f 1/1/36 31/31/36 33/33/36 
f 1/1/37 33/33/37 2/2/37 
s 1
f 6/6/38 5/5/38 34/34/38 
f 6/6/39 34/34/39 35/35/39 
f 36/36/40 6/6/41 35/35/42 10/37/9 
f 35/35/42 37/38/43 8/39/7 10/37/9 
s 16
f 38/40/44 9/41/44 8/39/44 
f 8/39/45 37/38/45 39/42/45 
f 39/42/46 12/12/47 38/40/48 8/39/49 
f 12/12/50 39/42/50 28/28/50 
f 12/12/50 28/28/50 13/13/50 
f 40/43/51 17/17/16 16/16/15 41/44/52 
f 13/13/12 30/30/53 42/45/54 43/46/55 
f 14/14/13 13/13/12 43/46/55 44/47/56 
f 44/47/56 43/46/55 41/44/52 16/16/15 
f 26/26/57 27/27/57 18/18/57 
f 26/26/58 18/18/58 17/17/58 
f 22/22/59 26/26/59 17/17/59 
f 22/22/60 17/17/16 45/48/61 
f 22/22/62 45/48/62 23/23/62 
f 46/49/63 45/48/61 17/17/16 47/50/64 
f 17/17/16 40/43/51 48/51/65 47/50/64 
s 2
f 39/52/66 37/53/66 35/54/66 
f 28/55/66 39/52/66 35/54/66 
f 29/56/66 28/55/66 35/54/66 
f 30/57/66 29/56/66 35/54/66 
f 42/58/66 30/57/66 35/54/66 
f 42/58/66 35/54/66 34/59/66 
f 43/60/66 42/58/66 34/59/66 
f 41/61/66 43/60/66 34/59/66 
f 34/59/66 5/62/66 7/63/66 
f 41/61/66 34/59/66 7/63/66 
f 40/64/66 41/61/66 7/63/66 
f 3/65/66 2/66/66 33/67/66 
f 3/65/66 33/67/66 31/68/66 
f 19/69/66 23/70/66 45/71/66 
f 20/72/66 19/69/66 45/71/66 
f 20/72/66 45/71/66 46/73/66 
f 20/72/66 46/73/66 47/74/66 
f 31/68/66 20/72/66 47/74/66 
f 3/65/66 31/68/66 47/74/66 
f 7/63/66 3/65/66 47/74/66 
f 7/63/66 47/74/66 48/75/66 
f 40/64/66 7/63/66 48/75/66 
s 4
f 18/18/67 27/27/67 25/25/67 
f 15/15/67 18/18/67 25/25/67 
f 15/15/67 25/25/67 24/24/67 
f 16/16/67 15/15/67 24/24/67 
f 44/47/67 16/16/67 24/24/67 
f 44/47/67 24/24/67 32/32/67 
f 32/32/67 1/1/67 4/4/67 
f 44/47/67 32/32/67 4/4/67 
f 44/47/67 4/4/67 6/6/67 
f 14/14/67 44/47/67 6/6/67 
f 11/11/67 14/14/67 6/6/67 
f 11/11/67 6/6/67 36/36/67 
f 12/12/67 11/11/67 36/36/67 
f 12/12/67 36/36/67 10/37/67 
f 38/40/67 12/12/67 10/37/67 
f 38/40/67 10/37/67 9/41/67 
# 16 polygons - 60 triangles

