# 3ds Max Wavefront OBJ Exporter v0.97b - (c)2007 guruware
# File Created: 16.10.2013 17:14:01

mtllib 1016_pian.mtl

#
# object pian01
#

v  -3.4208 36.0701 0.0000
v  -3.4208 -0.0180 -0.0000
v  3.4208 -0.0180 -0.0000
v  3.4208 36.0701 0.0000
v  -0.0000 36.0701 -3.4208
v  0.0000 -0.0180 -3.4208
v  -0.0000 -0.0180 3.4208
v  -0.0000 36.0701 3.4208
# 8 vertices

vn 0.0000 -0.0000 1.0000
vn -1.0000 -0.0000 -0.0000
# 2 vertex normals

vt 0.0000 1.0000 0.0000
vt 0.0000 0.0000 0.0000
vt 1.0000 0.0000 0.0000
vt 1.0000 1.0000 0.0000
# 4 texture coords

g pian01
usemtl wire_153228214
s 1
f 1/1/1 2/2/1 3/3/1 4/4/1 
f 5/1/2 6/2/2 7/3/2 8/4/2 
# 2 polygons

